<?xml version="1.0" encoding="iso-8859-1"?>
<!-- Generator: Adobe Illustrator 19.0.0, SVG Export Plug-In . SVG Version: 6.00 Build 0)  -->
<svg version="1.1" id="Layer_1" xmlns="http://www.w3.org/2000/svg" xmlns:xlink="http://www.w3.org/1999/xlink" x="0px" y="0px"
	 viewBox="0 0 512 512" style="enable-background:new 0 0 512 512;" xml:space="preserve">
<path style="fill:#A5A5A5;" d="M503.916,460.8L503.916,460.8c0,23.812-19.304,43.116-43.116,43.116H51.2
	c-23.812,0-43.116-19.304-43.116-43.116l0,0c0-23.812,19.304-43.116,43.116-43.116h409.6
	C484.612,417.684,503.916,436.988,503.916,460.8z"/>
<path style="fill:#CCCAC4;" d="M471.579,158.989v237.137c0,23.812-19.304,43.116-43.116,43.116H83.537
	c-23.812,0-43.116-19.304-43.116-43.116V158.989c0-23.812,19.304-43.116,43.116-43.116h344.926
	C452.275,115.874,471.579,135.178,471.579,158.989z"/>
<path style="fill:#F2EFE2;" d="M428.463,417.684H83.537c-11.906,0-21.558-9.651-21.558-21.558V158.989
	c0-11.906,9.651-21.558,21.558-21.558h344.926c11.906,0,21.558,9.651,21.558,21.558v237.137
	C450.021,408.033,440.37,417.684,428.463,417.684z"/>
<path style="fill:#BFBBA3;" d="M401.516,204.8H110.484c-8.929,0-16.168-7.239-16.168-16.168l0,0c0-8.929,7.239-16.168,16.168-16.168
	h291.032c8.929,0,16.168,7.239,16.168,16.168l0,0C417.684,197.561,410.445,204.8,401.516,204.8z M245.221,245.221L245.221,245.221
	c0-8.929-7.239-16.168-16.168-16.168H110.484c-8.929,0-16.168,7.239-16.168,16.168l0,0c0,8.929,7.239,16.168,16.168,16.168h118.568
	C237.982,261.389,245.221,254.15,245.221,245.221z M417.684,245.221L417.684,245.221c0-8.929-7.239-16.168-16.168-16.168H282.947
	c-8.929,0-16.168,7.239-16.168,16.168l0,0c0,8.929,7.239,16.168,16.168,16.168h118.568
	C410.445,261.389,417.684,254.15,417.684,245.221z"/>
<path style="fill:#FFD880;" d="M401.516,379.958H110.484c-8.929,0-16.168-7.239-16.168-16.168v-64.674
	c0-8.929,7.239-16.168,16.168-16.168h291.032c8.929,0,16.168,7.239,16.168,16.168v64.674
	C417.684,372.719,410.445,379.958,401.516,379.958z"/>
<path style="fill:#FC8059;" d="M143.361,370.496l-2.258,2.258l0.083,0.083l-18.495,18.495c-1.327,1.327-3.127,2.073-5.004,2.073l0,0
	c-1.877,0-3.677-0.746-5.004-2.073L94.19,372.837l0.083-0.083l-2.258-2.258c-6.466-6.466-6.466-16.949,0-23.415l0,0
	c6.466-6.466,16.949-6.466,23.415,0l2.258,2.258l2.258-2.258c6.466-6.466,16.949-6.466,23.415,0l0,0
	C149.827,353.547,149.827,364.03,143.361,370.496z"/>
<path style="fill:#D6A154;" d="M372.413,291.212l-21.558,28.744c-4.312,5.748-12.935,5.748-17.246,0l-21.558-28.744
	c-1.399-1.866-2.156-4.135-2.156-6.467V29.642c0-11.906,9.651-21.558,21.558-21.558h21.558c11.906,0,21.558,9.651,21.558,21.558
	v255.102C374.568,287.076,373.812,289.346,372.413,291.212z"/>
<path style="fill:#B26932;" d="M366.484,299.116l-15.629,20.839c-4.312,5.748-12.935,5.748-17.246,0l-15.629-20.839H366.484z"/>
<path style="fill:#FFD880;" d="M309.895,256V29.642c0-11.906,9.651-21.558,21.558-21.558h21.558
	c11.906,0,21.558,9.651,21.558,21.558V256H309.895z"/>
<path style="fill:#FCC159;" d="M342.232,256V8.084h10.779c11.906,0,21.558,9.651,21.558,21.558V256H342.232z"/>
<path style="fill:#FC8059;" d="M374.568,29.642V51.2h-64.674V29.642c0-11.906,9.651-21.558,21.558-21.558h21.558
	C364.917,8.084,374.568,17.736,374.568,29.642z"/>
<path style="fill:#4C4C4C;" d="M477.068,412.237c1.685-5.067,2.596-10.485,2.596-16.11V158.989c0-28.231-22.969-51.2-51.2-51.2
	h-45.811V29.642C382.653,13.298,369.355,0,353.01,0h-21.558c-16.344,0-29.642,13.298-29.642,29.642v78.147H83.537
	c-28.231,0-51.2,22.969-51.2,51.2v237.137c0,5.627,0.912,11.043,2.596,16.11C14.43,419.065,0,438.368,0,460.8
	C0,489.031,22.969,512,51.2,512h409.6c28.231,0,51.2-22.969,51.2-51.2C512,438.368,497.57,419.065,477.068,412.237z M317.979,29.642
	c0-7.43,6.044-13.474,13.474-13.474h21.558c7.43,0,13.474,6.044,13.474,13.474v13.474h-48.505V29.642z M366.484,59.284v188.632
	h-16.168V59.284H366.484z M317.979,59.284h16.168v188.632h-16.168V59.284z M317.979,264.084h48.505v20.66
	c0,0.579-0.192,1.153-0.539,1.617l-21.558,28.743c-0.704,0.938-1.652,1.078-2.156,1.078s-1.452-0.14-2.156-1.078l-21.557-28.741
	c-0.348-0.466-0.54-1.04-0.54-1.619V264.084z M48.505,158.989c0-19.317,15.715-35.032,35.032-35.032h218.274v160.786
	c0,4.053,1.339,8.071,3.773,11.318l21.558,28.743c3.596,4.796,9.096,7.545,15.091,7.545s11.495-2.75,15.091-7.545l21.558-28.742
	c2.433-3.244,3.773-7.263,3.773-11.319V123.958h45.811c19.317,0,35.032,15.715,35.032,35.032v237.137
	c0,19.317-15.715,35.032-35.032,35.032H83.537c-19.317,0-35.032-15.715-35.032-35.032V158.989z M460.8,495.832H51.2
	c-19.317,0-35.032-15.715-35.032-35.032c0-16.257,11.071-30.113,26.426-33.963c9.349,12.434,24.222,20.49,40.943,20.49h344.926
	c16.72,0,31.594-8.056,40.943-20.49c15.355,3.85,26.426,17.707,26.426,33.963C495.832,480.117,480.117,495.832,460.8,495.832z
	 M172.463,471.579c0,4.466-3.618,8.084-8.084,8.084H78.147c-4.466,0-8.084-3.618-8.084-8.084s3.618-8.084,8.084-8.084h86.232
	C168.845,463.495,172.463,467.113,172.463,471.579z M441.937,471.579c0,4.466-3.618,8.084-8.084,8.084H272.168
	c-4.466,0-8.084-3.618-8.084-8.084s3.618-8.084,8.084-8.084h161.684C438.318,463.495,441.937,467.113,441.937,471.579z
	 M243.604,471.579c0,4.466-3.618,8.084-8.084,8.084h-1.078c-4.466,0-8.084-3.618-8.084-8.084s3.618-8.084,8.084-8.084h1.078
	C239.986,463.495,243.604,467.113,243.604,471.579z M210.189,471.579c0,4.466-3.618,8.084-8.084,8.084h-1.078
	c-4.466,0-8.084-3.618-8.084-8.084s3.618-8.084,8.084-8.084h1.078C206.571,463.495,210.189,467.113,210.189,471.579z"/>
<g>
</g>
<g>
</g>
<g>
</g>
<g>
</g>
<g>
</g>
<g>
</g>
<g>
</g>
<g>
</g>
<g>
</g>
<g>
</g>
<g>
</g>
<g>
</g>
<g>
</g>
<g>
</g>
<g>
</g>
</svg>
