<?xml version="1.0" encoding="iso-8859-1"?>
<!-- Generator: Adobe Illustrator 19.0.0, SVG Export Plug-In . SVG Version: 6.00 Build 0)  -->
<svg version="1.1" id="Layer_1" xmlns="http://www.w3.org/2000/svg" xmlns:xlink="http://www.w3.org/1999/xlink" x="0px" y="0px"
	 viewBox="0 0 460.001 460.001" style="enable-background:new 0 0 460.001 460.001;" xml:space="preserve">
<path style="fill:#EDEEF0;" d="M92.122,230c0,25.529-13.223,47.971-33.193,60.848c0,0,272.328,0,297.606,0
	s59.403-17.19,59.403-60.848s-34.125-60.848-59.403-60.848s-297.606,0-297.606,0C78.899,182.029,92.122,204.471,92.122,230z"/>
<path style="fill:#E5C400;" d="M29.873,153.333h323.586c42.275,0,76.668,34.393,76.668,76.667c0,42.276-34.393,76.667-76.668,76.667
	H29.873v-29.816h323.586c25.835,0,46.852-21.016,46.852-46.851c0-25.833-21.018-46.851-46.852-46.851H29.873V153.333z"/>
<path style="opacity:0.3;fill:#5B5B5F;enable-background:new    ;" d="M92.122,230c0,17.877-6.501,34.226-17.245,46.851H29.873
	v29.816h323.586c42.275,0,76.668-34.391,76.668-76.667L92.122,230L92.122,230z"/>
<path style="fill:#EDEEF0;" d="M367.878,383.333c0,25.529,13.223,47.971,33.193,60.848c0,0-272.328,0-297.606,0
	s-59.403-17.19-59.403-60.848s34.125-60.848,59.403-60.848s297.606,0,297.606,0C381.102,335.363,367.878,357.804,367.878,383.333z"
	/>
<path style="fill:#C8523B;" d="M430.128,306.667H106.541c-42.275,0-76.668,34.393-76.668,76.667
	c0,42.276,34.393,76.667,76.668,76.667h323.586v-29.816H106.541c-25.835,0-46.852-21.016-46.852-46.851
	c0-25.833,21.018-46.851,46.852-46.851h323.586V306.667z"/>
<path style="opacity:0.3;fill:#5B5B5F;enable-background:new    ;" d="M367.878,383.333c0,17.877,6.501,34.226,17.245,46.851h45.004
	V460H106.541c-42.275,0-76.668-34.391-76.668-76.667H367.878z"/>
<path style="fill:#EDEEF0;" d="M367.878,76.667c0,25.529,13.223,47.971,33.193,60.848c0,0-272.328,0-297.606,0
	s-59.403-17.19-59.403-60.848s34.125-60.848,59.403-60.848s297.606,0,297.606,0C381.102,28.696,367.878,51.137,367.878,76.667z"/>
<path style="fill:#ABCB57;" d="M430.128,0H106.541C64.266,0,29.873,34.393,29.873,76.666c0,42.276,34.393,76.667,76.668,76.667
	h323.586v-29.816H106.541c-25.835,0-46.852-21.016-46.852-46.851c0-25.833,21.018-46.851,46.852-46.851h323.586V0z"/>
<path style="opacity:0.3;fill:#5B5B5F;enable-background:new    ;" d="M367.878,76.667c0,17.877,6.501,34.226,17.245,46.851h45.004
	v29.816H106.541c-42.275,0-76.668-34.391-76.668-76.667H367.878z"/>
<g>
</g>
<g>
</g>
<g>
</g>
<g>
</g>
<g>
</g>
<g>
</g>
<g>
</g>
<g>
</g>
<g>
</g>
<g>
</g>
<g>
</g>
<g>
</g>
<g>
</g>
<g>
</g>
<g>
</g>
</svg>
