<?xml version="1.0" encoding="iso-8859-1"?>
<!-- Generator: Adobe Illustrator 19.0.0, SVG Export Plug-In . SVG Version: 6.00 Build 0)  -->
<svg version="1.1" id="Layer_1" xmlns="http://www.w3.org/2000/svg" xmlns:xlink="http://www.w3.org/1999/xlink" x="0px" y="0px"
	 viewBox="0 0 485 485" style="enable-background:new 0 0 485 485;" xml:space="preserve">
<g id="XMLID_54_">
	<g>
		<g id="XMLID_55_">
			<g>
				<polygon style="fill:#AFB6BB;" points="417.5,62.5 417.5,322.5 337.5,322.5 337.5,272.5 337.5,262.5 337.5,62.5 				"/>
				<rect x="422.5" y="387.5" style="fill:#31C0D8;" width="55" height="35"/>
				<rect x="422.5" y="352.5" style="fill:#31C0D8;" width="55" height="35"/>
				<rect x="367.5" y="387.5" style="fill:#31C0D8;" width="55" height="35"/>
				<rect x="367.5" y="352.5" style="fill:#31C0D8;" width="55" height="35"/>
				<rect x="337.5" y="32.5" style="fill:#E7ECED;" width="80" height="30"/>
				<polygon style="fill:#E7ECED;" points="477.5,352.5 422.5,352.5 367.5,352.5 367.5,387.5 367.5,422.5 422.5,422.5 477.5,422.5 
					477.5,452.5 337.5,452.5 337.5,342.5 337.5,322.5 417.5,322.5 477.5,322.5 				"/>
				<polygon style="fill:#AFB6BB;" points="337.5,342.5 337.5,452.5 227.5,452.5 227.5,342.5 279.2,304.9 337.5,262.5 337.5,272.5 
					337.5,322.5 				"/>
				<rect x="197.5" y="32.5" style="fill:#E7ECED;" width="80" height="30"/>
				<polygon style="fill:#E7ECED;" points="227.5,342.5 227.5,452.5 117.5,452.5 117.5,342.5 198.4,283.7 227.5,262.5 				"/>
				<polygon style="fill:#AFB6BB;" points="277.5,302.5 279.2,304.9 227.5,342.5 227.5,262.5 198.4,283.7 197.5,282.5 197.5,62.5 
					277.5,62.5 				"/>
				<polygon style="fill:#AFB6BB;" points="117.5,342.5 117.5,452.5 7.5,452.5 7.5,342.5 117.5,262.5 				"/>
			</g>
			<g>
				<rect x="37.5" y="375" style="fill:#231F20;" width="20" height="15"/>
				<rect x="67.5" y="375" style="fill:#231F20;" width="20" height="15"/>
				<rect x="37.5" y="405" style="fill:#231F20;" width="20" height="15"/>
				<rect x="67.5" y="405" style="fill:#231F20;" width="20" height="15"/>
				<rect x="147.5" y="375" style="fill:#231F20;" width="20" height="15"/>
				<rect x="177.5" y="375" style="fill:#231F20;" width="20" height="15"/>
				<rect x="147.5" y="405" style="fill:#231F20;" width="20" height="15"/>
				<rect x="177.5" y="405" style="fill:#231F20;" width="20" height="15"/>
				<rect x="257.5" y="375" style="fill:#231F20;" width="20" height="15"/>
				<rect x="287.5" y="375" style="fill:#231F20;" width="20" height="15"/>
				<rect x="257.5" y="405" style="fill:#231F20;" width="20" height="15"/>
				<rect x="287.5" y="405" style="fill:#231F20;" width="20" height="15"/>
				<path style="fill:#231F20;" d="M425,315V40h12.5V25h-120v15H330v218.681l-45,32.727V40h12.5V25h-120v15H190v240.489l-65,47.28
					v-79.997L0,338.681V460h485V315H425z M410,40v15h-65V40H410z M345,70h65v245h-65V70z M270,40v15h-65V40H270z M205,70h65v232.317
					l-35,25.454v-80.015l-30,21.821V70z M15,445v-98.681l95-69.091V335H77.5v15H110v95H15z M125,445v-98.679l77.816-56.559
					L220,277.243V335h-32.5v15H220v95H125z M235,445v-98.681l95-69.091V335h-32.5v15H330v95H235z M345,445V330h125v15H360v85h110v15
					H345z M375,395h40v20h-40V395z M375,380v-20h40v20H375z M430,395h40v20h-40V395z M430,380v-20h40v20H430z"/>
			</g>
		</g>
	</g>
</g>
<g>
</g>
<g>
</g>
<g>
</g>
<g>
</g>
<g>
</g>
<g>
</g>
<g>
</g>
<g>
</g>
<g>
</g>
<g>
</g>
<g>
</g>
<g>
</g>
<g>
</g>
<g>
</g>
<g>
</g>
</svg>
