<?xml version="1.0" encoding="iso-8859-1"?>
<!-- Generator: Adobe Illustrator 19.0.0, SVG Export Plug-In . SVG Version: 6.00 Build 0)  -->
<svg xmlns="http://www.w3.org/2000/svg" xmlns:xlink="http://www.w3.org/1999/xlink" version="1.1" id="Layer_1" x="0px" y="0px" viewBox="0 0 422.015 422.015" style="enable-background:new 0 0 422.015 422.015;" xml:space="preserve" width="512" height="512">
<g>
	<g>
		
			<rect x="204.898" y="69.713" transform="matrix(0.7071 0.7071 -0.7071 0.7071 202.2935 -108.904)" style="fill:#985F35;" width="55.424" height="240.067"/>
		
			<rect x="228.553" y="79.51" transform="matrix(0.7071 0.7071 -0.7071 0.7071 212.0983 -112.9634)" style="opacity:0.2;fill:#222222;" width="27.711" height="240.067"/>
		
			<rect x="278.074" y="100.023" transform="matrix(0.7071 0.7071 -0.7071 0.7071 171.9901 -182.0808)" style="opacity:0.2;fill:#222222;" width="55.424" height="33.095"/>
	</g>
	<g>
		<path style="fill:#5C6670;" d="M25.113,287.955c-25.621,25.618-34.582,79.31-12.891,121.494    c42.185,21.693,95.878,12.732,121.498-12.889l42.354-42.356c14.091-14.089,14.092-37.147,0.001-51.235l-57.371-57.371    c-14.091-14.093-37.148-14.092-51.236,0L25.113,287.955z"/>
		<path style="opacity:0.2;fill:#222222;" d="M176.076,302.968l-28.684-28.688L12.222,409.449    c42.185,21.693,95.878,12.732,121.498-12.889l42.354-42.356C190.166,340.115,190.167,317.057,176.076,302.968z"/>
		<path style="opacity:0.3;fill:#222222;" d="M37.449,304.834c-18.73,18.725-25.281,57.979-9.424,88.816    c30.834,15.854,70.085,9.303,88.814-9.424l30.961-30.966c10.303-10.298,10.303-27.15,0.002-37.45l-41.939-41.939    c-10.3-10.3-27.152-10.299-37.455,0L37.449,304.834z"/>
	</g>
	<g>
		<polygon style="fill:#A4A9AD;" points="198.424,282.078 140.276,223.929 118.658,245.55 176.808,303.699   "/>
		<polygon style="opacity:0.2;fill:#222222;" points="183.56,296.937 125.416,238.792 118.658,245.55 176.808,303.699   "/>
		
			<rect x="152.521" y="263.066" transform="matrix(-0.7071 -0.7071 0.7071 -0.7071 98.65 597.5647)" style="opacity:0.2;fill:#222222;" width="41.116" height="30.573"/>
	</g>
	<g>
		<path style="fill:#229CD2;" d="M333.939,142.961l-54.542-54.542c-16.388-16.388-16.388-43.048,0.001-59.437L295.75,12.63    c16.385-16.385,43.049-16.385,59.432,0l54.543,54.543c16.387,16.387,16.388,43.051,0,59.438l-16.353,16.35    C376.986,159.347,350.324,159.347,333.939,142.961z M334.688,33.125c-5.085-5.082-13.362-5.084-18.448,0l-16.351,16.354    c-5.083,5.086-5.083,13.361,0.001,18.447l54.545,54.541c5.082,5.084,13.355,5.084,18.445,0l16.35-16.352    c5.084-5.086,5.084-13.361,0-18.447L334.688,33.125z"/>
		<path style="opacity:0.2;fill:#222222;" d="M409.724,67.173l-27.611-27.61l-20.496,20.493l27.613,27.611    c5.084,5.086,5.084,13.361,0,18.447l-16.35,16.352c-5.09,5.084-13.363,5.084-18.445,0L326.82,94.851l-20.493,20.497l27.612,27.612    c16.385,16.387,43.047,16.387,59.432,0l16.353-16.35C426.112,110.224,426.111,83.56,409.724,67.173z"/>
	</g>
</g>















</svg>
