<?xml version="1.0" encoding="iso-8859-1"?>
<!-- Generator: Adobe Illustrator 18.0.0, SVG Export Plug-In . SVG Version: 6.00 Build 0)  -->
<!DOCTYPE svg PUBLIC "-//W3C//DTD SVG 1.1//EN" "http://www.w3.org/Graphics/SVG/1.1/DTD/svg11.dtd">
<svg version="1.1" id="Capa_1" xmlns="http://www.w3.org/2000/svg" xmlns:xlink="http://www.w3.org/1999/xlink" x="0px" y="0px"
	 viewBox="0 0 443.489 443.489" style="enable-background:new 0 0 443.489 443.489;" xml:space="preserve">
<g>
	<g>
		<path style="fill:#B3B3B3;" d="M46.83,35.454l27.57,59.62l-29.17,13.41v-0.01C30.27,86.734,30.41,57.234,46.83,35.454z"/>
		<polygon style="fill:#808080;" points="85.12,116.174 97.18,141.744 84.23,147.844 72.03,121.964 84.97,115.864 		"/>
		<polygon style="fill:#808080;" points="110.48,103.834 122.68,129.714 109.74,135.814 109.59,135.504 97.53,109.944 		"/>
		<polygon style="fill:#999999;" points="109.59,135.504 109.74,135.814 97.18,141.744 85.12,116.174 84.97,115.864 97.53,109.944 
					"/>
		<path style="fill:#CCCCCC;" d="M97.18,141.744l12.56-5.93l12.94-6.1l-12.2-25.88l-12.95,6.11l-12.56,5.92l-12.94,6.1l12.2,25.88
			L97.18,141.744z M155.39,76.794c0,4.96-0.41,9.84-1.68,14.43c-0.92,3.35-5.14,13.99-5.14,13.99l-0.02,0.05l-23.2,56.88
			c-5.56,13.63-8.65,28.14-9.12,42.85l-1.91-0.07h-44.9c-2.78-18.6-9.76-36.41-20.52-52.03l-24.09-35.03l15.52-7.13l4.9-2.25
			l29.17-13.41l49.03-22.54l-26.67-58.15C129.48,16.394,155.39,43.564,155.39,76.794z"/>
		<path style="fill:#999999;" d="M116.15,375.974v30.45c0,12.53-10.15,22.69-22.68,22.69c-6.27,0-11.93-2.54-16.04-6.65
			c-4.1-4.1-6.64-9.77-6.64-16.04v-30.45h1.22h41.69H116.15z M103.03,405.734c0-5.19-4.2-9.4-9.4-9.4c-5.19,0-9.4,4.21-9.4,9.4
			s4.21,9.4,9.4,9.4C98.83,415.134,103.03,410.924,103.03,405.734z"/>
		<path style="fill:#999999;" d="M114.32,204.924l1.91,0.07c-0.06,1.35-0.08,2.7-0.08,4.06v11.2h-2.45H72.01l-1.26,0.04
			c-0.12-5.16-0.57-10.29-1.33-15.37H114.32z"/>
		<path style="fill:#EF7954;" d="M116.15,220.254v155.72h-2.45H72.01h-1.22v-152.67c0-1-0.01-2-0.04-3.01l1.26-0.04h41.69H116.15z"
			/>
	</g>
	<g>
		<g id="XMLID_24_">
			<g>
				<path style="fill:#CCCCCC;" d="M302.184,44.604c1.05,16.29-6.12,30.95-17.76,40.25c-16.08,12.85-25.14,32.57-25.14,53.15v204.34
					c0,11.07,2.75,21.93,7.8,31.78c3.33,6.49,5.2,13.84,5.2,21.63c0,26.74-22.1,48.31-49.03,47.46l13.98-26.66
					c5.39-10.27,1.43-22.96-8.85-28.35c-3.11-1.63-6.45-2.41-9.74-2.41c-7.55,0-14.85,4.09-18.61,11.25l-13.82,26.36
					c-5.05-7.01-8.24-15.43-8.82-24.52c-1.05-16.28,6.12-30.95,17.76-40.25c16.08-12.85,25.13-32.56,25.13-53.15v-204.34
					c0-11.06-2.74-21.93-7.79-31.78c-3.33-6.48-5.21-13.83-5.21-21.62c0-26.75,22.11-48.32,49.04-47.47l-13.98,26.66
					c-5.39,10.27-1.43,22.97,8.84,28.35c3.12,1.63,6.45,2.41,9.74,2.41c7.56,0,14.86-4.09,18.62-11.25l13.82-26.36
					C298.404,27.094,301.604,35.514,302.184,44.604z M247.784,310.744v-178c0-4.42-3.58-8-8-8c-2.2,0-4.2,0.89-5.65,2.34
					c-1.45,1.45-2.35,3.45-2.35,5.66v178c0,4.42,3.59,8,8,8C244.204,318.744,247.784,315.164,247.784,310.744z"/>
				<path style="fill:#999999;" d="M247.784,132.744v178c0,4.42-3.58,8-8,8c-4.41,0-8-3.58-8-8v-178c0-2.21,0.9-4.21,2.35-5.66
					c1.45-1.45,3.45-2.34,5.65-2.34C244.204,124.744,247.784,128.324,247.784,132.744z"/>
			</g>
			<g>
			</g>
		</g>
	</g>
	<g>
		<g id="XMLID_23_">
			<g>
				<polygon style="fill:#EF7954;" points="418.427,285.364 418.427,295.094 401.927,302.594 357.927,302.594 341.427,295.094 
					341.427,285.364 371.927,285.364 387.927,285.364 				"/>
				<path style="fill:#EF7954;" d="M401.927,316.594v97.5c0,1.47-0.14,2.9-0.42,4.29l-1.58-0.29h-40.5l-1.09,0.2
					c-0.27-1.36-0.41-2.76-0.41-4.2v-97.5h1.5h40.5H401.927z"/>
				<polygon style="fill:#999999;" points="401.927,302.594 401.927,316.594 399.927,316.594 359.427,316.594 357.927,316.594 
					357.927,302.594 				"/>
				<path style="fill:#999999;" d="M399.927,418.094l1.58,0.29c-0.86,4.36-3,8.25-6.02,11.27c-3.98,3.98-9.48,6.44-15.56,6.44
					c-10.71,0-19.64-7.66-21.59-17.8l1.09-0.2H399.927z"/>
				<polygon style="fill:#CCCCCC;" points="388.467,31.694 397.007,63.014 388.467,77.804 387.927,77.804 387.927,285.364 
					371.927,285.364 371.927,77.804 371.387,77.804 362.847,63.014 371.387,31.694 				"/>
			</g>
			<g>
			</g>
		</g>
	</g>
</g>
<g>
</g>
<g>
</g>
<g>
</g>
<g>
</g>
<g>
</g>
<g>
</g>
<g>
</g>
<g>
</g>
<g>
</g>
<g>
</g>
<g>
</g>
<g>
</g>
<g>
</g>
<g>
</g>
<g>
</g>
</svg>
