<?xml version="1.0" encoding="iso-8859-1"?>
<!-- Generator: Adobe Illustrator 19.0.0, SVG Export Plug-In . SVG Version: 6.00 Build 0)  -->
<svg version="1.1" id="Layer_1" xmlns="http://www.w3.org/2000/svg" xmlns:xlink="http://www.w3.org/1999/xlink" x="0px" y="0px"
	 viewBox="0 0 512.001 512.001" style="enable-background:new 0 0 512.001 512.001;" xml:space="preserve">
<path style="fill:#BF9DB6;" d="M401.206,108.601c31.983,0,57.912,25.928,57.912,57.912V360.69H302.631V108.601H401.206z"/>
<g>
	<rect x="52.877" y="169.801" style="fill:#9090B3;" width="115.823" height="39.925"/>
	<rect x="322.558" y="169.801" style="fill:#9090B3;" width="136.56" height="39.925"/>
</g>
<circle style="fill:#AFAFD9;" cx="470.105" cy="189.769" r="33.885"/>
<path style="opacity:0.1;enable-background:new    ;" d="M452.239,189.763c0-15.954,11.029-29.325,25.877-32.924
	c-2.569-0.623-5.248-0.961-8.008-0.961c-18.714,0-33.885,15.171-33.885,33.885s15.171,33.885,33.885,33.885
	c2.76,0,5.439-0.338,8.008-0.961C463.267,219.088,452.239,205.717,452.239,189.763z"/>
<path style="fill:#FCCFEF;" d="M176.97,108.601c-31.984,0-57.912,25.928-57.912,57.912v236.889h224.236V166.512
	c0-31.984,25.928-57.912,57.912-57.912H176.97z"/>
<rect x="119.059" y="295.939" style="fill:#FF8081;" width="224.236" height="41.751"/>
<circle style="fill:#AFAFD9;" cx="41.889" cy="189.769" r="33.885"/>
<path style="opacity:0.1;enable-background:new    ;" d="M24.025,189.763c0-15.954,11.029-29.325,25.877-32.924
	c-2.569-0.623-5.248-0.961-8.008-0.961c-18.714,0-33.885,15.171-33.885,33.885s15.171,33.885,33.885,33.885
	c2.76,0,5.439-0.338,8.008-0.961C35.054,219.088,24.025,205.717,24.025,189.763z"/>
<path style="opacity:0.1;enable-background:new    ;" d="M219.682,108.601H176.97c-31.984,0-57.912,25.928-57.912,57.912v236.889
	h42.712V166.512C161.77,134.529,187.698,108.601,219.682,108.601z"/>
<path d="M470.106,147.87c-1.885,0-3.737,0.138-5.556,0.379c-3.498-12.133-10.459-23.102-20.11-31.496
	c-11.982-10.422-27.338-16.161-43.236-16.162H176.969c-34.759,0-63.302,27.048-65.732,61.199H73.049
	c-7.675-8.54-18.797-13.923-31.155-13.923C18.793,147.87,0,166.663,0,189.763s18.793,41.894,41.894,41.894
	c12.359,0,23.481-5.383,31.155-13.923h38.002v78.203v41.748v65.716c0,4.423,3.586,8.008,8.008,8.008h224.236
	c4.423,0,8.008-3.586,8.008-8.008v-34.703h107.815c4.423,0,8.008-3.586,8.008-8.008v-60.516c0-4.423-3.586-8.008-8.008-8.008
	s-8.008,3.586-8.008,8.008v52.508h-99.806v-14.996v-41.748v-78.203h87.647c0.026,0.029,0.05,0.058,0.076,0.086
	c0.034,0.038,0.067,0.078,0.103,0.116c3.261,3.604,7.187,6.638,11.492,8.896c0.165,0.086,0.322,0.186,0.489,0.27v41.038
	c0,4.423,3.586,8.008,8.008,8.008s8.008-3.586,8.008-8.008V231.54c0.986,0.069,1.978,0.117,2.981,0.117
	c23.101,0,41.894-18.793,41.894-41.894S493.207,147.87,470.106,147.87z M67.7,191.578c-1.008,12.969-12.682,24.063-25.806,24.063
	c-14.269,0-25.877-11.608-25.877-25.877c0-14.269,11.608-25.877,25.877-25.877c13.949,0,25.877,11.921,25.877,25.877
	C67.77,190.371,67.746,190.976,67.7,191.578z M111.05,201.717c0,0-24.894,0-28.062,0c-0.306,0-0.633-0.01-0.931,0.007
	c1.089-3.912,1.73-7.893,1.73-11.961c0-4.031-0.58-8.09-1.728-11.954h28.99V201.717z M335.286,360.69v34.703H127.067v-49.699
	h208.219V360.69z M350.667,124.312c-9.702,11.732-15.38,26.906-15.38,42.2v3.288v39.926v78.203H192.661
	c-4.423,0-8.008,3.586-8.008,8.008c0,4.423,3.586,8.008,8.008,8.008h142.625v25.732H127.067v-25.732h33.561
	c4.423,0,8.008-3.586,8.008-8.008c0-4.423-3.586-8.008-8.008-8.008h-33.561V169.8v-3.288c0-27.517,22.386-49.903,49.903-49.903
	H358.18c-0.194,0.168-0.378,0.349-0.571,0.52C355.113,119.334,352.792,121.741,350.667,124.312z M428.297,192.432
	c0.199,3.144,0.746,6.268,1.643,9.285h-78.637v-23.909h78.638c-1.148,3.862-1.728,7.925-1.728,11.954
	C428.214,190.653,428.241,191.543,428.297,192.432z M443.12,157.775c-1.491,1.23-2.881,2.584-4.169,4.017h-87.418
	c0.249-2.643,0.697-5.228,1.344-7.736c5.547-21.51,25.112-37.446,48.329-37.446c22.556,0,42.308,15.443,48.146,36.759
	c0.08,0.345-3.04,2.07-3.367,2.285C444.993,156.306,444.037,157.017,443.12,157.775z M470.106,215.64
	c-20.378,0-32.833-23.688-21.328-40.49c0.064-0.093,0.124-0.189,0.189-0.282c4.787-6.79,12.831-10.981,21.138-10.981
	c14.269,0,25.877,11.608,25.877,25.877C495.983,204.031,484.375,215.64,470.106,215.64z"/>
<g>
</g>
<g>
</g>
<g>
</g>
<g>
</g>
<g>
</g>
<g>
</g>
<g>
</g>
<g>
</g>
<g>
</g>
<g>
</g>
<g>
</g>
<g>
</g>
<g>
</g>
<g>
</g>
<g>
</g>
</svg>
